<svg width="124" height="124" viewBox="0 0 124 124" fill="none" xmlns="http://www.w3.org/2000/svg">
<path d="M60.5104 124C58.3677 124 56.4054 123.811 54.513 123.424C53.5408 123.225 52.5767 123.191 51.6451 123.157C50.7314 123.125 49.8698 123.093 49.0715 122.913C48.0132 122.672 46.9418 122.478 45.9045 122.289C43.3537 121.826 40.9443 121.387 38.6439 120.321C38.0163 120.031 37.379 119.748 36.7645 119.475C34.6526 118.536 32.6578 117.65 30.8028 116.39C30.2094 115.987 29.5899 115.663 28.9884 115.349C28.0682 114.868 27.1984 114.412 26.6457 113.781C25.6133 112.601 24.4249 111.818 23.2755 111.061C22.2203 110.366 21.2237 109.71 20.4678 108.812C19.3883 107.529 18.3152 106.183 17.2796 104.88L16.7756 104.248C16.5139 103.92 16.2489 103.595 15.9839 103.271C15.2409 102.362 14.5386 101.503 13.9273 100.58C12.3666 98.2255 11.2058 96.2365 11.6171 93.8555C11.7797 92.9145 12.2658 92.3513 12.9161 92.3513C13.355 92.3513 13.8167 92.6115 14.2183 93.0855C15.1385 94.1691 16.0294 95.3454 16.8911 96.4825C17.4796 97.2613 18.0893 98.0651 18.7119 98.8457C19.9052 100.343 21.1652 101.852 22.4577 103.333C23.3031 104.301 24.181 105.249 25.0297 106.165C25.3873 106.552 25.745 106.937 26.101 107.326C26.1791 107.441 26.3075 107.602 26.4994 107.735C27.2667 108.272 28.0438 108.833 28.7949 109.375C30.5443 110.639 32.3538 111.945 34.2364 113.084C37.2782 114.925 40.8614 116.228 45.5127 117.188C46.6345 117.42 47.7644 117.552 48.8569 117.678C49.3463 117.735 49.8519 117.794 50.3429 117.862C50.8013 117.924 51.2598 118.005 51.7443 118.09C52.7848 118.274 53.8594 118.464 54.9714 118.464C55.0218 118.464 55.0722 118.464 55.121 118.464C55.4852 118.459 55.851 118.457 56.2168 118.457C56.9646 118.457 57.7304 118.466 58.4717 118.477C59.2196 118.486 59.9951 118.496 60.7592 118.496C63.4921 118.496 66.4347 118.384 69.4294 117.566C70.6569 117.231 71.9428 116.969 73.1866 116.714C74.2921 116.488 75.435 116.254 76.5633 115.966C77.0445 115.843 77.5518 115.741 78.0882 115.634C79.8197 115.288 81.6113 114.93 83.0273 113.756C84.1556 112.82 85.4888 112.533 86.9015 112.23C88.0331 111.986 89.202 111.735 90.3465 111.145C90.9074 110.854 91.4943 110.566 92.0634 110.286C94.4012 109.133 96.8171 107.94 98.8119 106.105C99.42 105.543 100.051 104.977 100.659 104.428C104.027 101.389 107.511 98.2451 110.072 94.0693C110.956 92.6275 111.603 91.0556 112.229 89.5354C112.35 89.2431 112.47 88.9508 112.592 88.6603C114.115 85.0228 115.614 81.3407 117.047 77.7174C117.312 77.0455 117.386 76.3665 117.453 75.7677C117.472 75.5895 117.492 75.4112 117.518 75.2366C117.627 74.4952 117.754 73.7342 117.876 72.9963C118.175 71.1981 118.484 69.3392 118.589 67.4518C118.713 65.2312 118.677 62.9927 118.643 60.8291C118.627 59.8203 118.611 58.776 118.611 57.7565C118.611 57.1809 118.627 56.6123 118.643 56.0099C118.658 55.4824 118.672 54.937 118.676 54.3917C118.68 53.6467 118.677 52.916 118.599 52.1657C118.482 51.0536 118.344 49.9308 118.212 48.8454C118.142 48.2751 118.072 47.703 118.004 47.1309C117.97 46.8475 117.949 46.5517 117.926 46.2362C117.872 45.5126 117.817 44.7641 117.612 43.9942C117.443 43.3544 117.276 42.7128 117.11 42.0712C116.419 39.4121 115.707 36.6639 114.738 34.0351C114.08 32.2493 113.101 30.656 112.156 29.118C111.878 28.6653 111.59 28.1983 111.322 27.7421C111.173 27.489 111.025 27.2342 110.875 26.9793C109.809 25.1579 108.705 23.2741 107.433 21.5328C106.525 20.2888 105.421 19.2872 104.351 18.3177C104.177 18.1591 104.003 18.0022 103.831 17.8436C102.693 16.7975 101.459 15.7691 100.163 14.7871C97.365 12.6645 94.1638 11.0783 90.0864 9.79867C89.5971 9.6454 89.098 9.47965 88.6151 9.31925C86.8105 8.72042 84.9441 8.10199 82.9639 7.87386C81.478 7.70277 79.9758 7.60118 78.5223 7.50494C77.8915 7.46217 77.2412 7.4194 76.599 7.3695C75.3992 6.27343 74.0807 6.1255 73.05 6.1255C72.7053 6.1255 72.3688 6.14333 72.042 6.15937C71.7364 6.17541 71.447 6.18966 71.1674 6.19145H71.1478C70.3155 6.19145 69.4733 6.09877 68.5808 6.00075C67.9272 5.92946 67.2493 5.85461 66.5664 5.81718C65.2935 5.74945 64.0042 5.7049 62.7573 5.66213C60.6811 5.59084 58.5351 5.51598 56.4476 5.33241C55.4413 5.2433 54.4252 5.19875 53.427 5.19875C49.7446 5.19875 46.0281 5.81183 42.3815 7.02196C41.4239 7.3392 40.4436 7.57267 39.4063 7.81862C38.1821 8.10912 36.9157 8.41031 35.6785 8.86478C34.3209 9.3638 33.061 10.0785 31.8433 10.77C31.362 11.0427 30.8629 11.326 30.3768 11.5845C30.063 11.7502 29.7476 11.9088 29.4144 12.0781C28.5397 12.5183 27.6341 12.9746 26.7757 13.5716C25.6426 14.3594 24.5468 15.2184 23.4884 16.0489C22.9064 16.5052 22.3065 16.9775 21.7131 17.4248C20.5686 18.2892 19.3915 19.1482 18.2128 19.9787C15.5612 21.8483 13.6834 24.4468 11.8674 26.9597L11.4675 27.514C9.08413 30.8022 7.50226 34.5395 6.20652 37.7867C4.14504 42.9516 3.69146 48.4426 4.81649 54.577C5.44078 57.9793 6.53167 61.2782 7.58517 64.4684C7.75588 64.987 7.92658 65.5039 8.09566 66.0207C8.64842 67.712 9.66778 69.1093 10.4254 69.9826C10.8936 70.5208 11.3342 71.0947 11.8008 71.7006C13.1632 73.4704 14.5727 75.3007 16.761 76.4093C17.3739 76.7194 17.9706 77.1079 18.6046 77.5178C19.3606 78.0079 20.1426 78.5159 21.001 78.9186C24.446 80.5298 27.1724 81.248 29.8436 81.248C31.0157 81.248 32.1814 81.1001 33.3081 80.8078C34.3437 80.5387 35.4265 80.3088 36.4735 80.086C38.8341 79.5834 41.276 79.0648 43.5651 78.0489C47.914 76.1188 50.6128 72.1676 51.3704 66.6231C51.7963 63.506 51.6272 60.5564 50.855 57.605C50.0909 54.6858 48.1676 52.4473 45.5745 51.4635C43.5455 50.6936 41.4483 50.1197 39.421 49.5636C38.665 49.3569 37.883 49.143 37.1221 48.922C36.054 48.6137 34.9696 48.3107 33.9194 48.0167C31.6075 47.3715 29.2176 46.7032 26.9091 45.9493C26.7172 45.8869 26.3758 45.3362 26.1482 44.9726C25.9807 44.7053 25.8084 44.4273 25.6084 44.1564C24.9955 43.3241 24.7874 42.3617 24.5468 41.246C24.4168 40.6436 24.2834 40.0216 24.0753 39.3836C23.5486 37.7653 23.9225 35.6587 25.0719 33.7482C26.2978 31.7129 28.1511 30.3744 29.9086 30.2568C31.2043 30.1695 32.4627 29.895 33.6788 29.6295C34.7566 29.3942 35.776 29.1714 36.7954 29.077C37.6716 28.995 38.6162 28.9576 39.7673 28.9576C40.6013 28.9576 41.4581 28.9772 42.2872 28.9968C42.7424 29.0075 43.1993 29.0182 43.6545 29.0253L43.8138 29.0289C46.3451 29.0716 48.9642 29.1162 51.5151 29.2944C52.8352 29.3871 54.1911 29.5617 55.5031 29.7328C56.4119 29.8505 57.3516 29.9717 58.2848 30.0679C58.4343 30.0839 58.5872 30.0911 58.753 30.0911C59.0538 30.0911 59.3334 30.0661 59.6033 30.0429C59.8292 30.0233 60.0438 30.0037 60.2357 30.0037C60.2698 30.0037 60.304 30.0037 60.3365 30.0055C60.6259 30.018 60.9461 30.0715 61.2843 30.1285C61.52 30.1695 61.7655 30.2105 62.0208 30.2408L62.1102 30.2515C62.3085 30.2764 62.5345 30.3049 62.7833 30.3049C62.9767 30.3049 63.1556 30.2871 63.3295 30.2532C64.4204 30.0323 65.5584 29.9235 66.8087 29.9235C68.9254 29.9235 71.0308 30.2301 73.1801 30.574C73.3361 30.599 73.502 30.6115 73.671 30.6115C74.0807 30.6115 74.4612 30.5384 74.7944 30.4742C75.0432 30.4261 75.2773 30.3816 75.4545 30.3816C76.6381 30.4012 77.8216 30.4119 78.9678 30.4226C82.3071 30.4546 85.7603 30.4867 89.1256 30.7202C93.2924 31.0089 96.0465 32.1139 98.0559 34.3025C100.218 36.6586 100.352 39.6616 98.4526 43.2278C97.2024 45.575 95.3279 47.2004 92.8795 48.0541C91.2196 48.6333 89.4361 48.8525 87.547 49.086C86.7065 49.1894 85.835 49.2963 84.9766 49.4389C84.7588 49.4745 84.5491 49.5173 84.3475 49.5601C84.0451 49.6225 83.7589 49.6813 83.4972 49.7044C82.2161 49.8149 80.9106 49.9201 79.649 50.0199C77.8606 50.1625 76.0121 50.3104 74.1897 50.4797C68.3938 51.0179 64.0449 55.486 63.3669 61.5972C63.349 61.763 63.3312 61.9305 63.3133 62.0962C63.2125 63.039 63.1182 63.9301 62.9003 64.7411C62.2305 67.2486 62.8678 69.4782 63.4319 71.444C63.5588 71.8878 63.6791 72.3066 63.7864 72.729C63.8238 72.8769 63.8595 73.0248 63.8953 73.1745C64.0904 73.9837 64.3099 74.8997 64.7813 75.7231C65.3292 76.6802 65.9714 77.5356 66.5924 78.3644C66.8168 78.6638 67.0412 78.9632 67.2606 79.268C67.4378 79.5139 67.8215 79.9452 68.3905 80.0717C69.4278 80.3017 70.4504 80.7561 71.5331 81.2391C73.2418 81.9983 75.0074 82.7843 77.0478 82.7843C77.6509 82.7843 78.2557 82.713 78.8442 82.5722C79.0231 82.5294 79.2442 82.5098 79.5384 82.5098C79.7221 82.5098 79.9059 82.517 80.0912 82.5241C80.3074 82.5312 80.5237 82.5401 80.7399 82.5401C80.9333 82.5401 81.1073 82.5348 81.2715 82.5223C81.3934 82.5134 81.5186 82.5063 81.6438 82.5009C82.3136 82.4653 83.1476 82.4225 83.902 82.0019C85.6139 81.0484 87.4234 80.0094 89.0541 78.7297C91.1838 77.058 91.6667 74.595 92.091 72.4207C92.1999 71.8664 92.3007 71.3442 92.4275 70.8398C93.1477 67.9669 91.6342 66.2649 90.4327 65.2347L90.0523 64.9086C89.2638 64.2349 88.5192 63.5987 87.8038 62.9107C86.9389 62.0838 85.9586 61.6632 84.8856 61.6632C83.6272 61.6632 82.2941 62.2709 81.0325 63.4204C80.0506 64.3133 79.1613 65.5181 78.3094 67.1025C77.8834 67.8974 77.2396 68.2217 76.165 68.6709C75.9471 68.5354 75.7276 68.4071 75.513 68.2823C74.4465 67.6603 73.7848 67.2415 73.645 66.4948C73.6418 66.4769 73.58 65.9957 74.4335 64.5486C74.9001 63.7591 75.5472 63.0373 76.2349 62.2727C76.3877 62.1016 76.5405 61.9323 76.6917 61.7612C77.3485 61.0162 78.0281 60.2481 78.7499 59.676C79.0816 59.414 79.5124 59.1966 79.9693 58.9684C80.2863 58.8098 80.6147 58.6441 80.9464 58.448C81.0228 58.4035 81.0975 58.3571 81.174 58.3108C81.6552 58.0203 82.1104 57.7458 82.4469 57.7458C82.5217 57.7458 82.642 57.7565 82.8209 57.851C83.0485 57.9722 83.2988 58.0328 83.5655 58.0328C83.954 58.0328 84.2857 57.9009 84.5279 57.8064C84.5637 57.7922 84.5978 57.7779 84.632 57.7654C85.0628 57.6086 85.4806 57.532 85.9098 57.532C87.2592 57.532 88.568 58.3197 89.9531 59.152C90.1661 59.2803 90.3774 59.4069 90.5904 59.5334C91.0212 59.7865 91.4456 60.0877 91.8943 60.4067L92.0715 60.5332C94.2842 62.0998 95.6482 64.4452 97.0171 67.4821C97.087 67.6372 97.1292 68.0257 97.0772 68.4677C97.0041 69.0808 96.9634 69.7046 96.9228 70.3087C96.8269 71.7488 96.7374 73.1104 96.2595 74.0781C96.1132 74.3722 95.9684 74.6698 95.8238 74.9657C94.3719 77.9313 93.0014 80.7312 90.7416 82.7522C90.2636 83.1799 89.6426 83.5168 88.9858 83.875L88.7126 84.0247C85.5099 85.7838 81.886 86.6392 77.6363 86.6392C77.5534 86.6392 77.4705 86.6392 77.3859 86.6392C73.1053 86.6072 69.4749 85.5236 66.2884 83.3297C65.9307 83.0837 65.5617 82.8663 65.2057 82.6542C64.4968 82.2354 63.7636 81.8023 63.4531 81.3122C62.2077 79.3517 60.9201 77.3236 60.208 74.9336C59.5106 72.5918 59.4992 70.2089 59.4862 67.6853C59.4797 66.4039 59.4732 65.0797 59.3708 63.7484C59.2814 62.5757 59.5854 61.4529 59.9089 60.2623C60.1089 59.5298 60.3137 58.7724 60.4438 57.9597C60.6746 56.5036 61.4079 55.2454 62.1834 53.914C62.5768 53.2386 62.9832 52.54 63.3409 51.7879C63.9619 50.4797 64.9439 49.5993 66.0819 48.5781C66.1584 48.5086 66.3421 48.4052 66.6087 48.3375C67.5647 48.0951 68.5531 47.8741 69.5107 47.662C71.6291 47.1897 73.8206 46.7032 75.9276 45.9136C76.404 45.7354 76.9128 45.6517 77.5274 45.6517C77.9907 45.6517 78.4622 45.6962 78.9613 45.7443C79.4929 45.796 80.0424 45.8477 80.6163 45.8477C80.8212 45.8477 81.013 45.8406 81.2032 45.8281L82.0356 45.7693C84.3507 45.6071 86.7455 45.4396 89.1061 45.1633C90.049 45.0528 90.8977 44.7089 91.7171 44.3774C91.8959 44.3043 92.0747 44.2312 92.2536 44.1635C93.0421 43.8587 93.6371 43.1975 93.9281 42.3029C94.2728 41.2424 94.133 39.9824 93.5509 38.9309C92.2097 36.5071 90.5303 35.3771 88.2656 35.3771C87.7323 35.3771 87.1649 35.4377 86.5341 35.5625C86.4626 35.5768 86.3797 35.5839 86.2854 35.5839C85.9992 35.5839 85.6546 35.5197 85.2871 35.452C85.0368 35.4057 84.7799 35.3593 84.5117 35.3255C84.4922 35.3183 84.4726 35.3112 84.4515 35.3041C84.2841 35.2453 84.0304 35.1579 83.7134 35.1544C82.125 35.1312 80.5139 35.1205 78.9548 35.1098C75.7244 35.0884 72.3834 35.067 69.114 34.9316C66.0007 34.8015 62.8272 34.5769 59.7593 34.3595C57.5629 34.2044 55.2933 34.0423 53.053 33.9175C52.3263 33.8765 51.5817 33.8248 50.8599 33.7749C49.2048 33.6591 47.4929 33.5397 45.7972 33.5397C44.7259 33.5397 43.7569 33.586 42.8367 33.6822C42.3197 33.7357 41.7556 33.7624 41.1118 33.7624C40.468 33.7624 39.7608 33.7339 39.0974 33.7072C38.413 33.6787 37.7042 33.6502 36.9953 33.6502C36.0979 33.6502 35.3435 33.6965 34.6217 33.7927C33.6414 33.9264 32.5976 34.0993 31.6043 34.4611C29.494 35.2292 28.2015 37.6548 28.5982 40.1036C28.6925 40.6828 28.9803 41.2692 29.3705 41.6755C31.375 43.7589 33.83 44.4647 36.1727 45.0101C37.2522 45.2614 38.3545 45.5679 39.421 45.8655C40.346 46.1239 41.3036 46.3913 42.2612 46.6248C42.9375 46.7905 43.6138 46.9135 44.269 47.0329C45.142 47.1915 45.9663 47.3412 46.7564 47.58C47.9953 47.9543 49.1496 48.6191 50.499 49.7312C52.4987 51.3797 53.4042 53.7572 54.3618 56.2755C54.526 56.7068 54.6902 57.1363 54.8593 57.5658C54.9633 57.8278 54.9649 58.3286 54.9682 58.8134C54.9698 59.1484 54.9714 59.4942 55.0007 59.856C55.0397 60.3211 55.0885 60.7845 55.1373 61.2336C55.2381 62.1657 55.3324 63.0462 55.3242 63.9034C55.3226 64.0923 55.321 64.2812 55.321 64.4702C55.3129 65.9048 55.3047 67.2593 54.9796 68.5871C54.6187 70.0592 54.2382 70.9664 53.8367 71.9252L53.7537 72.123C53.5359 72.6452 53.3424 73.1692 53.1555 73.6771C52.5474 75.3257 52.0239 76.7497 50.8371 77.7923C47.6213 80.6189 44.2788 82.6185 40.6192 83.9053C40.1916 84.055 39.764 84.2136 39.3527 84.3669C37.8017 84.9444 36.3353 85.4897 34.8135 85.6198C34.0998 85.6822 33.4089 85.7125 32.7618 85.7125C32.266 85.7125 31.7815 85.6947 31.3198 85.659C30.8467 85.6216 30.3719 85.5913 29.8956 85.5592C28.0503 85.4362 26.3075 85.3204 24.6249 84.9194C20.1735 83.8607 16.6683 82.1035 13.9094 79.5478C13.0445 78.7458 12.2576 77.8333 11.4252 76.8655C10.5685 75.8693 9.68079 74.8409 8.68419 73.9213C6.90072 72.2781 5.80658 70.0859 4.64578 67.7655C4.09139 66.6569 3.51912 65.511 2.86069 64.4149C2.60382 63.989 2.42498 63.4097 2.23477 62.7949C2.0917 62.3351 1.94538 61.8592 1.74704 61.3816C0.644765 58.7118 0.0822493 55.9476 0.0237217 52.9285C-0.0673214 48.161 0.0432308 43.0692 1.4544 38.1414C1.72915 37.1808 1.78605 36.2273 1.83971 35.3059C1.86409 34.887 1.88685 34.4932 1.93075 34.1171C1.94375 34.0066 1.96652 33.8088 1.98928 33.725C2.88182 32.1103 3.92231 30.2372 4.99695 28.4211C5.17903 28.1146 5.35949 27.8063 5.53995 27.4979C6.41462 26.0062 7.31855 24.4664 8.30051 23.0673C9.00935 22.0586 9.78971 21.1158 10.614 20.1195C11.1245 19.5011 11.6545 18.8631 12.1617 18.209C13.6135 16.3412 15.5319 15.1257 17.5625 13.8372C18.6729 13.1332 19.8223 12.4061 20.9067 11.5542C21.3701 11.1906 21.7505 10.7789 22.1179 10.3797C22.5211 9.94303 22.9015 9.52955 23.2625 9.3442C26.1986 7.82218 28.834 6.61383 31.3198 5.64965C34.6932 4.3415 38.1366 3.17236 41.5556 2.17253C42.3197 1.94975 43.1749 1.89807 44.0788 1.84282C44.8136 1.79826 45.5745 1.75371 46.3435 1.61113C47.249 1.4436 48.1318 1.20478 48.9854 0.973094C49.9982 0.698632 50.9558 0.440209 51.9166 0.301196C52.8579 0.165747 53.8302 0.1604 54.8593 0.153271C55.6299 0.147925 56.4281 0.14436 57.2296 0.0802001C57.9222 0.0249511 58.6262 0 59.3822 0C61.7135 0 64.1018 0.263769 66.4104 0.516845C68.4247 0.737841 70.5057 0.967747 72.5834 1.03013C75.9894 1.13349 79.2263 1.7644 82.6518 2.43452C83.4305 2.58601 84.2093 2.73928 84.9913 2.88542C86.2545 3.12067 87.2137 3.31315 88.1014 3.50742C88.394 3.57158 88.6883 3.67316 88.9793 3.80861C89.3109 3.96367 89.6458 4.14723 90.0003 4.33972C90.7579 4.75319 91.5415 5.18092 92.434 5.41796C95.2612 6.16471 98.1974 7.20731 100.514 9.76659C101.34 10.6791 102.419 11.1977 103.374 11.654L103.598 11.7609C105.507 12.6841 106.938 14.3344 108.453 16.0828C108.854 16.5462 109.27 17.0256 109.695 17.4907C112.249 20.2835 114.543 23.34 116.258 25.6925L116.417 25.91C117.277 27.0845 118.02 28.0985 117.95 29.4887C117.887 30.7362 118.614 31.7949 119.199 32.645C119.279 32.7608 119.357 32.8731 119.43 32.9836C120.36 34.388 120.669 36.1079 120.994 37.9275C121.109 38.5745 121.23 39.2446 121.379 39.9111C121.96 42.4829 122.416 44.994 122.737 47.3751C123.185 50.706 123.476 54.0477 123.678 56.5892L123.737 57.3092C123.904 59.357 124.076 61.4725 123.964 63.4775C123.792 66.5447 123.348 69.6832 122.907 72.6345C122.511 75.2936 121.986 78.1541 121.301 81.3799C121.093 82.3637 120.727 83.3403 120.34 84.3758C120.256 84.6022 120.171 84.8267 120.088 85.0531C119.63 86.306 119.193 87.3735 118.752 88.3199C118.271 89.3518 117.762 90.3997 117.271 91.412C116.656 92.6774 116.021 93.9873 115.422 95.2991C115.099 96.0066 114.888 96.2829 114.479 96.5324C113.748 96.9761 113.441 97.7799 113.216 98.3663C113.137 98.5748 113.046 98.8118 112.979 98.9152C112.462 99.7065 111.854 100.612 111.176 101.35L110.626 101.949C108.466 104.301 106.23 106.732 103.94 108.979C103.028 109.874 101.883 110.696 100.339 111.567C96.3489 113.815 93.0193 115.668 89.4963 117.359C88.4753 117.85 87.3405 118.136 86.1374 118.441C85.3961 118.628 84.6287 118.823 83.8727 119.072C78.4931 120.842 72.9281 122.67 67.2899 123.467C64.7553 123.825 62.5378 123.998 60.5121 123.998L60.5104 124Z" fill="black"/>
</svg>
